<?xml version="1.0" standalone="no"?><!DOCTYPE svg PUBLIC "-//W3C//DTD SVG 1.1//EN" "http://www.w3.org/Graphics/SVG/1.1/DTD/svg11.dtd"><svg t="1548231171026" class="icon" style="" viewBox="0 0 1024 1024" version="1.1" xmlns="http://www.w3.org/2000/svg" p-id="10374" xmlns:xlink="http://www.w3.org/1999/xlink" width="16" height="16"><defs><style type="text/css"></style></defs><path d="M512 64C264.6 64 64 264.6 64 512s200.6 448 448 448 448-200.6 448-448S759.4 64 512 64z m181 583.8c12.4 12.4 12.4 32.8 0 45.3-12.4 12.4-32.8 12.4-45.3 0L511.9 557.3 376.2 693c-12.4 12.4-32.8 12.4-45.3 0-12.4-12.4-12.4-32.8 0-45.3L466.7 512 331 376.2c-12.4-12.4-12.4-32.8 0-45.3 12.4-12.4 32.8-12.4 45.2 0.1L512 466.8 647.8 331c12.4-12.4 32.8-12.4 45.3 0 12.4 12.4 12.4 32.8-0.1 45.2L557.2 512 693 647.8z" fill="" p-id="10375"></path></svg>