<?xml version="1.0" standalone="no"?><!DOCTYPE svg PUBLIC "-//W3C//DTD SVG 1.1//EN" "http://www.w3.org/Graphics/SVG/1.1/DTD/svg11.dtd"><svg t="1548230834818" class="icon" style="" viewBox="0 0 1024 1024" version="1.1" xmlns="http://www.w3.org/2000/svg" p-id="6970" xmlns:xlink="http://www.w3.org/1999/xlink" width="16" height="16"><defs><style type="text/css"></style></defs><path d="M549.28 579.584c-2.528 27.584-20.064 40.48-37.376 40.48-12.864 0 0 0 0 0-16.448-3.104-29.216-10.112-34.816-38.016l-22.624-260.8c0-26.208 31.872-49.408 58.912-49.408s56.16 24.256 56.16 50.432L549.28 579.584zM512 654.176c-27.04 0-48.992 21.92-48.992 48.992s21.92 49.024 48.992 49.024 48.992-21.952 48.992-49.024c0-27.04-21.92-48.992-48.992-48.992zM899.808 512c0 214.176-173.6 387.776-387.84 387.776-214.144 0-387.776-173.6-387.776-387.776s173.632-387.808 387.776-387.808c214.208 0 387.84 173.632 387.84 387.808zM828 512c0-174.528-141.472-315.968-316-315.968S196.032 337.472 196.032 512c0 174.496 141.44 315.968 315.968 315.968S828 686.496 828 512z" p-id="6971"></path></svg>